<?xml version="1.0" standalone="no"?>
<!DOCTYPE svg PUBLIC "-//W3C//DTD SVG 20010904//EN"
 "http://www.w3.org/TR/2001/REC-SVG-20010904/DTD/svg10.dtd">
<svg version="1.0" xmlns="http://www.w3.org/2000/svg"
 width="256.000000pt" height="256.000000pt" viewBox="0 0 256.000000 256.000000"
 preserveAspectRatio="xMidYMid meet">
<metadata>
Created by potrace 1.14, written by Peter Selinger 2001-2017
</metadata>
<g transform="translate(0.000000,256.000000) scale(0.100000,-0.100000)"
fill="#000000" stroke="none">
<path d="M1610 2549 c-14 -5 -67 -51 -117 -102 -91 -91 -93 -93 -111 -74 -22
21 -87 33 -128 23 -31 -8 -172 -140 -185 -173 -5 -14 -4 -34 2 -50 5 -15 83
-100 172 -189 89 -89 173 -173 186 -188 l24 -26 -331 -331 c-291 -290 -334
-330 -348 -318 -9 7 -91 88 -182 180 -92 91 -179 174 -194 183 -38 25 -62 14
-142 -63 -97 -94 -115 -144 -77 -226 l18 -40 -93 -96 c-101 -106 -114 -134
-95 -207 9 -31 36 -66 126 -156 63 -64 115 -118 115 -121 0 -3 -35 -40 -77
-83 -91 -92 -105 -115 -92 -151 12 -32 225 -249 257 -262 35 -14 68 5 154 91
44 45 82 79 84 78 2 -2 52 -51 112 -110 120 -119 149 -138 205 -138 54 0 70
11 175 114 61 60 95 87 100 79 22 -35 120 -43 167 -15 32 20 126 110 150 145
33 47 24 61 -181 267 l-196 198 332 332 332 332 198 -196 c208 -206 219 -214
269 -180 55 39 151 150 157 182 9 45 -1 100 -22 123 -17 19 -14 23 78 117 76
76 98 105 103 135 15 77 2 100 -123 228 -64 66 -116 124 -114 130 1 5 36 42
76 82 81 78 101 113 87 150 -13 31 -230 244 -262 256 -37 13 -64 -3 -152 -93
-41 -42 -78 -76 -82 -76 -4 0 -54 47 -111 105 -57 57 -115 112 -128 120 -30
20 -103 27 -136 14z"/>
</g>
</svg>
